<svg xmlns="http://www.w3.org/2000/svg" viewBox="0 0 493.65 551.4"><defs><style>.cls-1{fill:#fff;}</style></defs><g id="Layer_2" data-name="Layer 2"><g id="Layer_1-2" data-name="Layer 1"><path class="cls-1" d="M493.65,220.83V333.66a107.43,107.43,0,0,1-53.73,93l-206,118.89A42.84,42.84,0,0,1,175.41,530a41.08,41.08,0,0,1-5.49-18,99.91,99.91,0,0,1,49.56-94.84l171.69-99.12L417.44,303a190,190,0,0,0,76.21-82.12Z"/><path class="cls-1" d="M61.09,70.81,158.8,14.39a107.45,107.45,0,0,1,107.45,0l206,119A42.83,42.83,0,0,1,488,191.81a41.14,41.14,0,0,1-12.82,13.75,99.92,99.92,0,0,1-106.91,4.49L196.56,110.92,170.31,95.75A189.87,189.87,0,0,0,61.09,70.81Z"/><path class="cls-1" d="M151.42,525.15,53.71,468.73A107.41,107.41,0,0,1,0,375.68L0,137.84A42.84,42.84,0,0,1,42.77,95a41.1,41.1,0,0,1,18.32,4.23,99.92,99.92,0,0,1,57.35,90.34V387.77c0,9.29,0,19.75,0,30.32a190,190,0,0,0,33,107.06Z"/></g></g></svg>