<svg xmlns="http://www.w3.org/2000/svg" viewBox="0 0 528.52 63.82"><defs><style>.cls-1{fill:#fff;}</style></defs><g id="Layer_2" data-name="Layer 2"><g id="Layer_1-2" data-name="Layer 1"><path class="cls-1" d="M107.44,28.93v7.44h11.82v7q-4.62,2.28-11.88,2.28-7.68,0-11.64-3.72t-4-11q0-7.08,3.75-10.89t10.59-3.81a15.28,15.28,0,0,1,7.47,1.59,9.08,9.08,0,0,1,4.11,4.95l9.6-1.14A16.72,16.72,0,0,0,120,11.83q-5.4-3.42-13.68-3.42a28.6,28.6,0,0,0-13.11,2.82,19.79,19.79,0,0,0-8.46,7.92,23.68,23.68,0,0,0-2.91,11.94q0,10.5,6.75,16.41t18.75,5.91a41.4,41.4,0,0,0,11.34-1.53,31,31,0,0,0,9.42-4.35V28.93Z"/><path class="cls-1" d="M174.46,9.49,162,27.49l-12.3-18H139l18.12,25.74v17.1h9.6V35.23L184.84,9.49Z"/><path class="cls-1" d="M240.82,9.49,225.64,42,210.4,9.49H199.24V52.33h8.82v-29l13.68,29h7.38L242.8,23.11V52.33h8.94V9.49Z"/><path class="cls-1" d="M305.44,9.49V39.43L280.66,9.49H271.9V52.33h9.18V22.39l24.78,29.94h8.76V9.49Z"/><path class="cls-1" d="M360.76,9.49H349.9L330.28,52.33h9.9l15-34.5,15.06,34.5h10.14Z"/><path class="cls-1" d="M431.86,31.6q-3.66-3.15-11.52-4.41l-8.82-1.38a16.45,16.45,0,0,1-6-1.74,3.73,3.73,0,0,1-1.65-3.36q0-2.4,2.7-3.66a19,19,0,0,1,7.8-1.26,15,15,0,0,1,7,1.35,8.4,8.4,0,0,1,3.78,4.41l9.3-1.08a14,14,0,0,0-6.3-9.15q-4.8-2.91-13.56-2.91a34.78,34.78,0,0,0-10.95,1.53,15.25,15.25,0,0,0-7,4.35,10,10,0,0,0-2.4,6.66,10.57,10.57,0,0,0,4.05,8.85q4.05,3.15,12.81,4.35l7.2,1a13,13,0,0,1,5.61,1.8,4,4,0,0,1,1.77,3.48A4.49,4.49,0,0,1,423,44.62Q420.34,46,415.06,46q-5.88,0-8.82-2a8.36,8.36,0,0,1-3.54-6.15H393a17.13,17.13,0,0,0,3,8.7,14.71,14.71,0,0,0,7.2,5.1,35.69,35.69,0,0,0,11.85,1.68q9.84,0,15.15-3.45a10.93,10.93,0,0,0,5.31-9.69A10.84,10.84,0,0,0,431.86,31.6Z"/><path class="cls-1" d="M453.16,9.49V52.33h9.6V9.49Z"/><path class="cls-1" d="M508.9,9.49H498L478.42,52.33h9.9l15-34.5,15.06,34.5h10.14Z"/><path class="cls-1" d="M57.13,25.56V38.62a12.45,12.45,0,0,1-6.21,10.77L27.07,63.15a5,5,0,0,1-6.77-1.8,4.82,4.82,0,0,1-.63-2.09,11.55,11.55,0,0,1,5.73-11L45.27,36.82l3-1.76a21.94,21.94,0,0,0,8.82-9.5Z"/><path class="cls-1" d="M7.07,8.2,18.38,1.67a12.4,12.4,0,0,1,12.44,0L54.65,15.44a5,5,0,0,1,1.83,6.76A4.76,4.76,0,0,1,55,23.79a11.57,11.57,0,0,1-12.38.52L22.75,12.84l-3-1.76A21.91,21.91,0,0,0,7.07,8.2Z"/><path class="cls-1" d="M17.53,60.78,6.22,54.25A12.44,12.44,0,0,1,0,43.48V16a5,5,0,0,1,5-5,4.79,4.79,0,0,1,2.12.49,11.57,11.57,0,0,1,6.64,10.45v23c0,1.08,0,2.29,0,3.51a22,22,0,0,0,3.83,12.39Z"/></g></g></svg>