<svg xmlns="http://www.w3.org/2000/svg" viewBox="0 0 631.67 70.71"><defs><style>.cls-1{fill:#fff;}</style></defs><g id="Layer_2" data-name="Layer 2"><g id="Layer_1-2" data-name="Layer 1"><path class="cls-1" d="M63.3,28.32V42.79a13.76,13.76,0,0,1-6.89,11.93L30,70a5.5,5.5,0,0,1-7.51-2,5.34,5.34,0,0,1-.7-2.31A12.83,12.83,0,0,1,28.14,53.5l22-12.71,3.37-1.94A24.36,24.36,0,0,0,63.3,28.32Z"/><path class="cls-1" d="M7.83,9.08,20.36,1.85a13.74,13.74,0,0,1,13.78,0L60.55,17.1a5.5,5.5,0,0,1,2,7.5,5.31,5.31,0,0,1-1.65,1.76,12.83,12.83,0,0,1-13.71.58l-22-12.72-3.37-1.94a24.33,24.33,0,0,0-14-3.2Z"/><path class="cls-1" d="M19.42,67.34,6.89,60.11A13.77,13.77,0,0,1,0,48.17V17.68a5.48,5.48,0,0,1,5.47-5.5,5.11,5.11,0,0,1,2.35.54A12.81,12.81,0,0,1,15.19,24.3V49.73c0,1.19,0,2.53,0,3.88a24.38,24.38,0,0,0,4.24,13.73Z"/><path class="cls-1" d="M120.85,32.45v7.44h11.82v7q-4.62,2.28-11.88,2.28-7.68,0-11.64-3.72t-4-11q0-7.08,3.75-10.89t10.59-3.81A15.28,15.28,0,0,1,127,21.32a9.08,9.08,0,0,1,4.11,4.95l9.6-1.14a16.72,16.72,0,0,0-7.26-9.78q-5.4-3.42-13.68-3.42a28.6,28.6,0,0,0-13.11,2.82,19.79,19.79,0,0,0-8.46,7.92,23.68,23.68,0,0,0-2.91,11.94q0,10.5,6.75,16.41t18.75,5.91a41.4,41.4,0,0,0,11.34-1.53,31,31,0,0,0,9.42-4.35V32.45Z"/><path class="cls-1" d="M187.87,13,175.45,31l-12.3-18H152.41l18.12,25.74v17.1h9.6V38.75L198.25,13Z"/><path class="cls-1" d="M254.23,13,239.05,45.53,223.81,13H212.65V55.85h8.82v-29l13.68,29h7.38l13.68-29.22V55.85h8.94V13Z"/><path class="cls-1" d="M351.59,13l-9.3,31.68L332.21,13.25H323L313,44.63,303.65,13h-10.5l14.28,42.84h10.08l9.84-30.48,9.78,30.48h10.38L361.73,13Z"/><path class="cls-1" d="M398.63,13H387.77L368.15,55.85h9.9l15-34.5,15.06,34.5h10.14Z"/><path class="cls-1" d="M443.51,47.87V13h-9.6V55.85h34.56l1.2-8Z"/><path class="cls-1" d="M495.65,47.87V13h-9.6V55.85h34.56l1.2-8Z"/><path class="cls-1" d="M547.79,48V37.73h25V29.87h-25v-9h26.28V13H538.19V55.85h36l1.2-7.86Z"/><path class="cls-1" d="M588.47,13v8h16.8V55.85h9.6V21h16.8V13Z"/></g></g></svg>