<svg id="Layer_1" data-name="Layer 1" xmlns="http://www.w3.org/2000/svg" viewBox="0 0 1300 900"><path d="M493.18,447v7.44H505v7q-4.62,2.28-11.88,2.28-7.68,0-11.64-3.72t-4-11q0-7.08,3.75-10.89t10.59-3.81a15.28,15.28,0,0,1,7.47,1.59,9.08,9.08,0,0,1,4.11,4.95l9.6-1.14a16.72,16.72,0,0,0-7.26-9.78q-5.4-3.42-13.68-3.42A28.6,28.6,0,0,0,479,429.32a19.79,19.79,0,0,0-8.46,7.92,23.68,23.68,0,0,0-2.91,11.94q0,10.5,6.75,16.41t18.75,5.91A41.4,41.4,0,0,0,504.46,470a31,31,0,0,0,9.42-4.35V447Z"/><path d="M560.2,427.58l-12.42,18-12.3-18H524.74l18.12,25.74v17.1h9.6v-17.1l18.12-25.74Z"/><path d="M626.56,427.58,611.38,460.1l-15.24-32.52H585v42.84h8.82v-29l13.68,29h7.38l13.68-29.22v29.22h8.94V427.58Z"/><path d="M691.18,427.58v29.94L666.4,427.58h-8.76v42.84h9.18V440.48l24.78,29.94h8.76V427.58Z"/><path d="M746.5,427.58H735.64L716,470.42h9.9l15-34.5L756,470.42h10.14Z"/><path d="M817.6,449.69q-3.66-3.15-11.52-4.41l-8.82-1.38a16.45,16.45,0,0,1-6-1.74,3.73,3.73,0,0,1-1.65-3.36q0-2.4,2.7-3.66a19,19,0,0,1,7.8-1.26,15,15,0,0,1,7,1.35,8.4,8.4,0,0,1,3.78,4.41l9.3-1.08a14,14,0,0,0-6.3-9.15q-4.8-2.91-13.56-2.91a34.78,34.78,0,0,0-11,1.53,15.25,15.25,0,0,0-7,4.35A10,10,0,0,0,780,439a10.57,10.57,0,0,0,4,8.85q4.05,3.15,12.81,4.35l7.2,1a13,13,0,0,1,5.61,1.8,4,4,0,0,1,1.77,3.48,4.49,4.49,0,0,1-2.67,4.17q-2.67,1.41-8,1.41-5.88,0-8.82-1.95a8.36,8.36,0,0,1-3.54-6.15h-9.66a17.13,17.13,0,0,0,3,8.7,14.71,14.71,0,0,0,7.2,5.1,35.69,35.69,0,0,0,11.85,1.68q9.84,0,15.15-3.45a11.76,11.76,0,0,0,1.65-18.36Z"/><path d="M838.9,427.58v42.84h9.6V427.58Z"/><path d="M894.64,427.58H883.78l-19.62,42.84h9.9l15-34.5,15.06,34.5h10.14Z"/><path d="M442.87,443.65v13.06a12.45,12.45,0,0,1-6.21,10.77l-23.85,13.76a5,5,0,0,1-6.77-1.8,4.82,4.82,0,0,1-.63-2.08,11.55,11.55,0,0,1,5.73-11L431,454.91l3-1.76a21.94,21.94,0,0,0,8.82-9.5Z"/><path d="M392.81,426.29l11.31-6.53a12.43,12.43,0,0,1,12.43,0l23.84,13.77a5,5,0,0,1,1.83,6.76,4.7,4.7,0,0,1-1.49,1.59,11.56,11.56,0,0,1-12.37.52l-19.87-11.47-3-1.76a22,22,0,0,0-12.64-2.88Z"/><path d="M403.27,478.87,392,472.34a12.44,12.44,0,0,1-6.22-10.77V434a5,5,0,0,1,4.95-5,4.79,4.79,0,0,1,2.12.49A11.57,11.57,0,0,1,399.45,440V463c0,1.08,0,2.29,0,3.51a22,22,0,0,0,3.83,12.39Z"/></svg>